# xmcd CD database file
#
# Track frame offsets:
#	182
#	22662
#	51252
#	72667
#	102050
#
# Disc length: 1721 seconds
#
# Revision: 0
# Processed by: cddbd v1.5.1PL2 Copyright (c) Steve Scherf et al.
# Submitted via: CDex 1.51
#
DISCID=3906b705
DTITLE=Robert Cray - Some Rainy Morning
DYEAR=1900
DGENRE=Blues
TTITLE0=Moan (Radio Edit)
TTITLE1=Enough For Me
TTITLE2=Never Mattered Much
TTITLE3=Holdin' On
TTITLE4=Moan (Album Version)
EXTD=
EXTT0=
EXTT1=
EXTT2=
EXTT3=
EXTT4=
PLAYORDER=
